<svg xmlns="http://www.w3.org/2000/svg" viewBox="0 0 512 512">
  <defs>
    <linearGradient id="sky" x1="0" y1="0" x2="0" y2="1">
      <stop offset="0%" stop-color="#1a3a5c"/>
      <stop offset="100%" stop-color="#2d6a9f"/>
    </linearGradient>
  </defs>

  <!-- Background -->
  <rect width="512" height="512" rx="64" fill="url(#sky)"/>

  <!-- Left tower (taller) -->
  <g fill="#c0d8ec" opacity="0.9">
    <!-- Main body -->
    <rect x="112" y="72" width="100" height="380" rx="3"/>
    <!-- Crown/top detail -->
    <rect x="120" y="56" width="84" height="20" rx="2"/>
    <rect x="136" y="44" width="52" height="16" rx="2"/>
    <!-- Window rows -->
    <rect x="120" y="88" width="18" height="8" rx="1" fill="#4a8ab5"/>
    <rect x="144" y="88" width="18" height="8" rx="1" fill="#4a8ab5"/>
    <rect x="168" y="88" width="18" height="8" rx="1" fill="#4a8ab5"/>
    <rect x="192" y="88" width="12" height="8" rx="1" fill="#4a8ab5"/>

    <rect x="120" y="108" width="18" height="8" rx="1" fill="#4a8ab5"/>
    <rect x="144" y="108" width="18" height="8" rx="1" fill="#4a8ab5"/>
    <rect x="168" y="108" width="18" height="8" rx="1" fill="#4a8ab5"/>
    <rect x="192" y="108" width="12" height="8" rx="1" fill="#4a8ab5"/>

    <rect x="120" y="128" width="18" height="8" rx="1" fill="#4a8ab5"/>
    <rect x="144" y="128" width="18" height="8" rx="1" fill="#4a8ab5"/>
    <rect x="168" y="128" width="18" height="8" rx="1" fill="#4a8ab5"/>
    <rect x="192" y="128" width="12" height="8" rx="1" fill="#4a8ab5"/>

    <rect x="120" y="148" width="18" height="8" rx="1" fill="#4a8ab5"/>
    <rect x="144" y="148" width="18" height="8" rx="1" fill="#4a8ab5"/>
    <rect x="168" y="148" width="18" height="8" rx="1" fill="#4a8ab5"/>
    <rect x="192" y="148" width="12" height="8" rx="1" fill="#4a8ab5"/>

    <rect x="120" y="168" width="18" height="8" rx="1" fill="#4a8ab5"/>
    <rect x="144" y="168" width="18" height="8" rx="1" fill="#4a8ab5"/>
    <rect x="168" y="168" width="18" height="8" rx="1" fill="#4a8ab5"/>
    <rect x="192" y="168" width="12" height="8" rx="1" fill="#4a8ab5"/>

    <rect x="120" y="188" width="18" height="8" rx="1" fill="#4a8ab5"/>
    <rect x="144" y="188" width="18" height="8" rx="1" fill="#4a8ab5"/>
    <rect x="168" y="188" width="18" height="8" rx="1" fill="#4a8ab5"/>
    <rect x="192" y="188" width="12" height="8" rx="1" fill="#4a8ab5"/>

    <rect x="120" y="208" width="18" height="8" rx="1" fill="#4a8ab5"/>
    <rect x="144" y="208" width="18" height="8" rx="1" fill="#4a8ab5"/>
    <rect x="168" y="208" width="18" height="8" rx="1" fill="#4a8ab5"/>
    <rect x="192" y="208" width="12" height="8" rx="1" fill="#4a8ab5"/>

    <rect x="120" y="228" width="18" height="8" rx="1" fill="#4a8ab5"/>
    <rect x="144" y="228" width="18" height="8" rx="1" fill="#4a8ab5"/>
    <rect x="168" y="228" width="18" height="8" rx="1" fill="#4a8ab5"/>
    <rect x="192" y="228" width="12" height="8" rx="1" fill="#4a8ab5"/>

    <rect x="120" y="248" width="18" height="8" rx="1" fill="#4a8ab5"/>
    <rect x="144" y="248" width="18" height="8" rx="1" fill="#4a8ab5"/>
    <rect x="168" y="248" width="18" height="8" rx="1" fill="#4a8ab5"/>
    <rect x="192" y="248" width="12" height="8" rx="1" fill="#4a8ab5"/>

    <rect x="120" y="268" width="18" height="8" rx="1" fill="#4a8ab5"/>
    <rect x="144" y="268" width="18" height="8" rx="1" fill="#4a8ab5"/>
    <rect x="168" y="268" width="18" height="8" rx="1" fill="#4a8ab5"/>
    <rect x="192" y="268" width="12" height="8" rx="1" fill="#4a8ab5"/>

    <rect x="120" y="288" width="18" height="8" rx="1" fill="#4a8ab5"/>
    <rect x="144" y="288" width="18" height="8" rx="1" fill="#4a8ab5"/>
    <rect x="168" y="288" width="18" height="8" rx="1" fill="#4a8ab5"/>
    <rect x="192" y="288" width="12" height="8" rx="1" fill="#4a8ab5"/>

    <rect x="120" y="308" width="18" height="8" rx="1" fill="#4a8ab5"/>
    <rect x="144" y="308" width="18" height="8" rx="1" fill="#4a8ab5"/>
    <rect x="168" y="308" width="18" height="8" rx="1" fill="#4a8ab5"/>
    <rect x="192" y="308" width="12" height="8" rx="1" fill="#4a8ab5"/>

    <rect x="120" y="328" width="18" height="8" rx="1" fill="#4a8ab5"/>
    <rect x="144" y="328" width="18" height="8" rx="1" fill="#4a8ab5"/>
    <rect x="168" y="328" width="18" height="8" rx="1" fill="#4a8ab5"/>
    <rect x="192" y="328" width="12" height="8" rx="1" fill="#4a8ab5"/>

    <rect x="120" y="348" width="18" height="8" rx="1" fill="#4a8ab5"/>
    <rect x="144" y="348" width="18" height="8" rx="1" fill="#4a8ab5"/>
    <rect x="168" y="348" width="18" height="8" rx="1" fill="#4a8ab5"/>
    <rect x="192" y="348" width="12" height="8" rx="1" fill="#4a8ab5"/>

    <rect x="120" y="368" width="18" height="8" rx="1" fill="#4a8ab5"/>
    <rect x="144" y="368" width="18" height="8" rx="1" fill="#4a8ab5"/>
    <rect x="168" y="368" width="18" height="8" rx="1" fill="#4a8ab5"/>
    <rect x="192" y="368" width="12" height="8" rx="1" fill="#4a8ab5"/>

    <rect x="120" y="388" width="18" height="8" rx="1" fill="#4a8ab5"/>
    <rect x="144" y="388" width="18" height="8" rx="1" fill="#4a8ab5"/>
    <rect x="168" y="388" width="18" height="8" rx="1" fill="#4a8ab5"/>
    <rect x="192" y="388" width="12" height="8" rx="1" fill="#4a8ab5"/>

    <rect x="120" y="408" width="18" height="8" rx="1" fill="#4a8ab5"/>
    <rect x="144" y="408" width="18" height="8" rx="1" fill="#4a8ab5"/>
    <rect x="168" y="408" width="18" height="8" rx="1" fill="#4a8ab5"/>
    <rect x="192" y="408" width="12" height="8" rx="1" fill="#4a8ab5"/>

    <rect x="120" y="428" width="18" height="8" rx="1" fill="#4a8ab5"/>
    <rect x="144" y="428" width="18" height="8" rx="1" fill="#4a8ab5"/>
    <rect x="168" y="428" width="18" height="8" rx="1" fill="#4a8ab5"/>
    <rect x="192" y="428" width="12" height="8" rx="1" fill="#4a8ab5"/>
  </g>

  <!-- Right tower (slightly shorter) -->
  <g fill="#a8c8e0" opacity="0.9">
    <!-- Main body -->
    <rect x="280" y="108" width="105" height="344" rx="3"/>
    <!-- Crown/top detail -->
    <rect x="288" y="92" width="89" height="20" rx="2"/>
    <rect x="306" y="80" width="54" height="16" rx="2"/>
    <!-- Window rows -->
    <rect x="290" y="124" width="18" height="8" rx="1" fill="#4a8ab5"/>
    <rect x="314" y="124" width="18" height="8" rx="1" fill="#4a8ab5"/>
    <rect x="338" y="124" width="18" height="8" rx="1" fill="#4a8ab5"/>
    <rect x="362" y="124" width="14" height="8" rx="1" fill="#4a8ab5"/>

    <rect x="290" y="144" width="18" height="8" rx="1" fill="#4a8ab5"/>
    <rect x="314" y="144" width="18" height="8" rx="1" fill="#4a8ab5"/>
    <rect x="338" y="144" width="18" height="8" rx="1" fill="#4a8ab5"/>
    <rect x="362" y="144" width="14" height="8" rx="1" fill="#4a8ab5"/>

    <rect x="290" y="164" width="18" height="8" rx="1" fill="#4a8ab5"/>
    <rect x="314" y="164" width="18" height="8" rx="1" fill="#4a8ab5"/>
    <rect x="338" y="164" width="18" height="8" rx="1" fill="#4a8ab5"/>
    <rect x="362" y="164" width="14" height="8" rx="1" fill="#4a8ab5"/>

    <rect x="290" y="184" width="18" height="8" rx="1" fill="#4a8ab5"/>
    <rect x="314" y="184" width="18" height="8" rx="1" fill="#4a8ab5"/>
    <rect x="338" y="184" width="18" height="8" rx="1" fill="#4a8ab5"/>
    <rect x="362" y="184" width="14" height="8" rx="1" fill="#4a8ab5"/>

    <rect x="290" y="204" width="18" height="8" rx="1" fill="#4a8ab5"/>
    <rect x="314" y="204" width="18" height="8" rx="1" fill="#4a8ab5"/>
    <rect x="338" y="204" width="18" height="8" rx="1" fill="#4a8ab5"/>
    <rect x="362" y="204" width="14" height="8" rx="1" fill="#4a8ab5"/>

    <rect x="290" y="224" width="18" height="8" rx="1" fill="#4a8ab5"/>
    <rect x="314" y="224" width="18" height="8" rx="1" fill="#4a8ab5"/>
    <rect x="338" y="224" width="18" height="8" rx="1" fill="#4a8ab5"/>
    <rect x="362" y="224" width="14" height="8" rx="1" fill="#4a8ab5"/>

    <rect x="290" y="244" width="18" height="8" rx="1" fill="#4a8ab5"/>
    <rect x="314" y="244" width="18" height="8" rx="1" fill="#4a8ab5"/>
    <rect x="338" y="244" width="18" height="8" rx="1" fill="#4a8ab5"/>
    <rect x="362" y="244" width="14" height="8" rx="1" fill="#4a8ab5"/>

    <rect x="290" y="264" width="18" height="8" rx="1" fill="#4a8ab5"/>
    <rect x="314" y="264" width="18" height="8" rx="1" fill="#4a8ab5"/>
    <rect x="338" y="264" width="18" height="8" rx="1" fill="#4a8ab5"/>
    <rect x="362" y="264" width="14" height="8" rx="1" fill="#4a8ab5"/>

    <rect x="290" y="284" width="18" height="8" rx="1" fill="#4a8ab5"/>
    <rect x="314" y="284" width="18" height="8" rx="1" fill="#4a8ab5"/>
    <rect x="338" y="284" width="18" height="8" rx="1" fill="#4a8ab5"/>
    <rect x="362" y="284" width="14" height="8" rx="1" fill="#4a8ab5"/>

    <rect x="290" y="304" width="18" height="8" rx="1" fill="#4a8ab5"/>
    <rect x="314" y="304" width="18" height="8" rx="1" fill="#4a8ab5"/>
    <rect x="338" y="304" width="18" height="8" rx="1" fill="#4a8ab5"/>
    <rect x="362" y="304" width="14" height="8" rx="1" fill="#4a8ab5"/>

    <rect x="290" y="324" width="18" height="8" rx="1" fill="#4a8ab5"/>
    <rect x="314" y="324" width="18" height="8" rx="1" fill="#4a8ab5"/>
    <rect x="338" y="324" width="18" height="8" rx="1" fill="#4a8ab5"/>
    <rect x="362" y="324" width="14" height="8" rx="1" fill="#4a8ab5"/>

    <rect x="290" y="344" width="18" height="8" rx="1" fill="#4a8ab5"/>
    <rect x="314" y="344" width="18" height="8" rx="1" fill="#4a8ab5"/>
    <rect x="338" y="344" width="18" height="8" rx="1" fill="#4a8ab5"/>
    <rect x="362" y="344" width="14" height="8" rx="1" fill="#4a8ab5"/>

    <rect x="290" y="364" width="18" height="8" rx="1" fill="#4a8ab5"/>
    <rect x="314" y="364" width="18" height="8" rx="1" fill="#4a8ab5"/>
    <rect x="338" y="364" width="18" height="8" rx="1" fill="#4a8ab5"/>
    <rect x="362" y="364" width="14" height="8" rx="1" fill="#4a8ab5"/>

    <rect x="290" y="384" width="18" height="8" rx="1" fill="#4a8ab5"/>
    <rect x="314" y="384" width="18" height="8" rx="1" fill="#4a8ab5"/>
    <rect x="338" y="384" width="18" height="8" rx="1" fill="#4a8ab5"/>
    <rect x="362" y="384" width="14" height="8" rx="1" fill="#4a8ab5"/>

    <rect x="290" y="404" width="18" height="8" rx="1" fill="#4a8ab5"/>
    <rect x="314" y="404" width="18" height="8" rx="1" fill="#4a8ab5"/>
    <rect x="338" y="404" width="18" height="8" rx="1" fill="#4a8ab5"/>
    <rect x="362" y="404" width="14" height="8" rx="1" fill="#4a8ab5"/>

    <rect x="290" y="424" width="18" height="8" rx="1" fill="#4a8ab5"/>
    <rect x="314" y="424" width="18" height="8" rx="1" fill="#4a8ab5"/>
    <rect x="338" y="424" width="18" height="8" rx="1" fill="#4a8ab5"/>
    <rect x="362" y="424" width="14" height="8" rx="1" fill="#4a8ab5"/>
  </g>

  <!-- Small background buildings between towers -->
  <rect x="220" y="260" width="52" height="192" rx="2" fill="#7aa3c4" opacity="0.5"/>
  <rect x="230" y="240" width="32" height="20" rx="2" fill="#7aa3c4" opacity="0.5"/>

  <!-- Ground/base -->
  <rect x="80" y="452" width="352" height="16" rx="4" fill="#e8e8e8" opacity="0.3"/>
</svg>
